<svg width="36" height="37" viewBox="0 0 36 37" fill="none" xmlns="http://www.w3.org/2000/svg">
<path d="M13.5 21.2234C9.99 21.2234 3 22.9493 3 26.3864C3 27.8122 4.15579 28.9679 5.58152 28.9679H21.4185C22.8442 28.9679 24 27.8122 24 26.3864C24 22.9493 17.01 21.2234 13.5 21.2234ZM13.5 26.0176C11.3833 26.0176 11.0654 24.2376 13.1813 24.1782C13.288 24.1752 13.3943 24.1737 13.5 24.1737C13.6057 24.1737 13.712 24.1752 13.8187 24.1782C15.9346 24.2376 15.6167 26.0176 13.5 26.0176ZM13.5 18.6419C16.395 18.6419 18.75 16.3259 18.75 13.4788C18.75 10.6318 16.395 8.31577 13.5 8.31577C10.605 8.31577 8.25 10.6318 8.25 13.4788C8.25 16.3259 10.605 18.6419 13.5 18.6419ZM13.5 11.2661C14.745 11.2661 15.75 12.2544 15.75 13.4788C15.75 14.7032 14.745 15.6915 13.5 15.6915C12.255 15.6915 11.25 14.7032 11.25 13.4788C11.25 12.2544 12.255 11.2661 13.5 11.2661ZM29.9344 22.8909C28.4519 22.18 27 24.7423 27 26.3864C27 27.8122 28.1558 28.9679 29.5815 28.9679H30.4185C31.8442 28.9679 33 27.8122 33 26.3864C33 24.9023 31.6977 23.7365 29.9344 22.8909ZM22.5 18.6419C25.395 18.6419 27.75 16.3259 27.75 13.4788C27.75 10.6318 25.395 8.31577 22.5 8.31577C21.29 8.31577 20.9231 9.74716 21.3175 10.891C21.5979 11.7044 21.75 12.5754 21.75 13.4788C21.75 14.3822 21.5979 15.2532 21.3175 16.0666C20.9231 17.2105 21.29 18.6419 22.5 18.6419Z" fill="#D6D6DF"/>
</svg>
