<svg width="36" height="37" viewBox="0 0 36 37" fill="none" xmlns="http://www.w3.org/2000/svg">
<path d="M33 9.73086C33 8.10819 31.65 6.78055 30 6.78055H6C4.35 6.78055 3 8.10819 3 9.73086V27.4327C3 29.0554 4.35 30.383 6 30.383H30C31.65 30.383 33 29.0554 33 27.4327V9.73086ZM18 9.73086C21.418 9.73086 22.6846 14.2182 19.7711 16.0054C18.6845 16.672 17.3155 16.672 16.2289 16.0054C13.3154 14.2182 14.582 9.73086 18 9.73086ZM30 22.1425C30 25.0642 27.6315 27.4327 24.7097 27.4327H11.2902C8.36852 27.4327 6 25.0642 6 22.1425C6 18.0051 10.5356 15.469 14.0604 17.6355L14.9307 18.1704C16.8133 19.3276 19.1867 19.3276 21.0693 18.1704L21.9396 17.6355C25.4644 15.469 30 18.0051 30 22.1425Z" fill="#D6D6DF"/>
</svg>
