<svg width="36" height="36" viewBox="0 0 36 36" fill="none" xmlns="http://www.w3.org/2000/svg">
<path d="M16.6313 5.90063C18.6332 5.90063 20.5549 6.68724 21.9822 8.09091L24.6094 10.6746C26.1387 12.1786 27 14.2336 27 16.3785V21.5031C27 25.9214 23.4183 29.5031 19 29.5031H17C12.5817 29.5031 9 25.9214 9 21.5031V13.5319C9 9.31727 12.4166 5.90063 16.6313 5.90063ZM23.3348 5.24642C21.8385 3.77494 19.824 2.95032 17.7254 2.95032H9C7.35 2.95032 6 4.27796 6 5.90063V29.5031C6 31.1258 7.35 32.4534 9 32.4534H27C28.65 32.4534 30 31.1258 30 29.5031V15.1542C30 13.0093 29.1387 10.9542 27.6094 9.45026L23.3348 5.24642ZM18 20.6522C19.65 20.6522 21 19.3245 21 17.7019C21 16.0792 19.65 14.7516 18 14.7516C16.35 14.7516 15 16.0792 15 17.7019C15 19.3245 16.35 20.6522 18 20.6522ZM24 25.712C24 24.5171 23.28 23.455 22.17 22.9829C20.895 22.4371 19.485 22.1273 18 22.1273C16.515 22.1273 15.105 22.4371 13.83 22.9829C12.72 23.455 12 24.5171 12 25.712C12 26.1763 12.3765 26.5528 12.8408 26.5528H23.1592C23.6235 26.5528 24 26.1763 24 25.712Z" fill="#D6D6DF"/>
</svg>
